<svg width="174" height="174" viewBox="0 0 174 174" fill="none" xmlns="http://www.w3.org/2000/svg">
<rect width="174" height="174" rx="87" fill="black"/>
<path d="M29 88.6109V85.1719C32.1228 85.1719 34.3012 84.5247 35.5354 83.2305C36.7882 81.9362 37.4146 79.7729 37.4146 76.7406V67.8656C37.4146 65.3141 37.6577 63.1046 38.1439 61.2371C38.6488 59.3697 39.4622 57.8258 40.5841 56.6055C41.7061 55.3852 43.202 54.4792 45.072 53.8875C46.9419 53.2958 49.2512 53 52 53V58.4359C49.8309 58.4359 48.1199 58.7688 46.8671 59.4344C45.6329 60.1 44.7541 61.1354 44.2305 62.5406C43.7256 63.9273 43.4732 65.7023 43.4732 67.8656V78.9594C43.4732 80.4016 43.2768 81.7143 42.8841 82.8977C42.5102 84.081 41.8089 85.0979 40.7805 85.9484C39.752 86.799 38.2841 87.4553 36.3768 87.9176C34.4882 88.3798 32.0293 88.6109 29 88.6109ZM52 124C49.2512 124 46.9419 123.704 45.072 123.113C43.202 122.521 41.7061 121.615 40.5841 120.395C39.4622 119.174 38.6488 117.63 38.1439 115.763C37.6577 113.895 37.4146 111.686 37.4146 109.134V100.259C37.4146 97.2271 36.7882 95.0638 35.5354 93.7695C34.3012 92.4753 32.1228 91.8281 29 91.8281V88.3891C32.0293 88.3891 34.4882 88.6202 36.3768 89.0824C38.2841 89.5447 39.752 90.201 40.7805 91.0516C41.8089 91.9021 42.5102 92.919 42.8841 94.1023C43.2768 95.2857 43.4732 96.5984 43.4732 98.0406V109.134C43.4732 111.298 43.7256 113.073 44.2305 114.459C44.7541 115.846 45.6329 116.872 46.8671 117.538C48.1199 118.222 49.8309 118.564 52 118.564V124ZM29 91.8281V85.1719H35.6195V91.8281H29Z" fill="white"/>
<path d="M151 88.3891V91.8281C147.877 91.8281 145.689 92.4753 144.437 93.7695C143.202 95.0638 142.585 97.2271 142.585 100.259V109.134C142.585 111.686 142.333 113.895 141.828 115.763C141.342 117.63 140.538 119.174 139.416 120.395C138.294 121.615 136.798 122.521 134.928 123.113C133.058 123.704 130.749 124 128 124V118.564C130.169 118.564 131.871 118.222 133.105 117.538C134.358 116.872 135.237 115.846 135.741 114.459C136.265 113.073 136.527 111.298 136.527 109.134V98.0406C136.527 96.5984 136.714 95.2857 137.088 94.1023C137.48 92.919 138.191 91.9021 139.22 91.0516C140.248 90.201 141.707 89.5447 143.595 89.0824C145.502 88.6202 147.971 88.3891 151 88.3891ZM128 53C130.749 53 133.058 53.2958 134.928 53.8875C136.798 54.4792 138.294 55.3852 139.416 56.6055C140.538 57.8258 141.342 59.3697 141.828 61.2371C142.333 63.1046 142.585 65.3141 142.585 67.8656V76.7406C142.585 79.7729 143.202 81.9362 144.437 83.2305C145.689 84.5247 147.877 85.1719 151 85.1719V88.6109C147.971 88.6109 145.502 88.3798 143.595 87.9176C141.707 87.4553 140.248 86.799 139.22 85.9484C138.191 85.0979 137.48 84.081 137.088 82.8977C136.714 81.7143 136.527 80.4016 136.527 78.9594V67.8656C136.527 65.7023 136.265 63.9273 135.741 62.5406C135.237 61.1354 134.358 60.1 133.105 59.4344C131.871 58.7688 130.169 58.4359 128 58.4359V53ZM151 85.1719V91.8281H144.38V85.1719H151Z" fill="white"/>
<g opacity="0.15">
<path fill-rule="evenodd" clip-rule="evenodd" d="M115.13 68.8328C114.272 68.7627 113.227 68.7412 111.833 68.7346C111.087 67.1309 110.341 63.7738 109.968 61.4602C110.016 61.4602 110.064 61.4602 110.112 61.4602C112.316 61.4601 114.187 61.4601 115.722 61.5855C117.333 61.7171 118.89 62.0047 120.377 62.7622C122.625 63.9075 124.453 65.735 125.598 67.9828C126.355 69.4696 126.643 71.0275 126.775 72.6381C126.9 74.173 126.9 76.0439 126.9 78.2485V78.9516C126.9 81.1562 126.9 83.0271 126.775 84.562C126.643 86.1726 126.355 87.7305 125.598 89.2173C124.453 91.4651 122.625 93.2926 120.377 94.4379C118.89 95.1954 117.333 95.483 115.722 95.6146C114.699 95.6982 113.527 95.726 112.206 95.7353C112.579 93.6151 112.952 91.377 112.952 88.4554C113.812 88.4426 114.518 88.4173 115.13 88.3673C116.291 88.2725 116.785 88.1072 117.076 87.959C117.956 87.5108 118.671 86.7957 119.119 85.9161C119.267 85.6253 119.432 85.1308 119.527 83.9699C119.626 82.7665 119.628 81.1949 119.628 78.8078V78.3923C119.628 76.0052 119.626 74.4336 119.527 73.2302C119.432 72.0693 119.267 71.5749 119.119 71.284C118.671 70.4044 117.956 69.6893 117.076 69.2411C116.785 69.0929 116.291 68.9277 115.13 68.8328Z" fill="white"/>
<path d="M60.8905 54H111.467L113.492 97.3194C113.916 106.4 114.128 110.94 112.493 114.427C111.055 117.492 108.657 120.005 105.662 121.584C102.255 123.381 97.7096 123.381 88.6194 123.381H83.3347C74.1679 123.381 69.5845 123.381 66.1621 121.564C63.1541 119.967 60.7529 117.428 59.327 114.335C57.7046 110.816 57.9612 106.24 58.4744 97.0876L60.8905 54Z" fill="white"/>
</g>
<mask id="mask0_32_50" style="mask-type:alpha" maskUnits="userSpaceOnUse" x="62" y="54" width="48" height="66">
<path d="M64.6211 54H107.738L109.433 98.5878C109.712 105.933 109.852 109.606 108.509 112.423C107.329 114.901 105.377 116.928 102.946 118.202C100.181 119.651 96.5058 119.651 89.1553 119.651H82.7638C75.3478 119.651 71.6398 119.651 68.8617 118.185C66.4196 116.896 64.4648 114.845 63.2944 112.344C61.9628 109.499 62.1402 105.795 62.495 98.3879L64.6211 54Z" fill="#FBCE59"/>
</mask>
<g mask="url(#mask0_32_50)">
<rect x="62" y="83.3809" width="49" height="75" fill="#FBCE59"/>
</g>
<path d="M84.668 119.651H89.1546C96.5051 119.651 100.18 119.651 102.945 118.202C105.376 116.928 107.328 114.901 108.508 112.423C109.851 109.606 109.711 105.933 109.432 98.5878L108.854 83.3809H100.648L101.367 102.305C101.597 108.354 101.712 111.378 100.606 113.699C99.6343 115.739 98.0267 117.409 96.0249 118.458C93.748 119.651 90.7213 119.651 84.668 119.651Z" fill="#F1A438"/>
<circle cx="69.5" cy="83.8809" r="6.5" fill="white"/>
<circle cx="103.233" cy="84.6135" r="6.23267" fill="white"/>
<circle cx="86" cy="84.3809" r="7" fill="white"/>
<circle cx="95" cy="83.3809" r="7" fill="white"/>
<circle cx="77.5" cy="85.8809" r="8.5" fill="white"/>
<path opacity="0.4" fill-rule="evenodd" clip-rule="evenodd" d="M72.0563 68.9396C73.7027 69.0144 74.9767 70.4098 74.9018 72.0562L73.4098 104.882C73.3349 106.528 71.9396 107.802 70.2932 107.727C68.6468 107.652 67.3728 106.257 67.4477 104.611L68.9397 71.7852C69.0146 70.1388 70.4099 68.8648 72.0563 68.9396Z" fill="white"/>
</svg>
